<svg width="109" height="85" viewBox="0 0 109 85" fill="none" xmlns="http://www.w3.org/2000/svg">
<rect width="109" height="85" rx="8" fill="white"/>
<path d="M42.3016 16.0804C40.6491 18.4714 39.6811 21.3717 39.6811 24.4983C39.6811 32.6854 46.318 39.3223 54.5051 39.3223C62.6922 39.3223 69.3291 32.6854 69.3291 24.4983C69.3291 16.3112 62.6922 9.67426 54.5051 9.67426C53.5793 9.67426 52.6738 9.75926 51.795 9.92141" stroke="#0C68F4" stroke-miterlimit="10" stroke-linecap="round" stroke-linejoin="round"/>
<path d="M44.8189 13.2761C44.3197 13.7073 43.8496 14.1712 43.4122 14.6645" stroke="#0C68F4" stroke-miterlimit="10" stroke-linecap="round" stroke-linejoin="round"/>
<path d="M66.0719 29.4281C68.7937 23.0372 65.8191 15.6499 59.4281 12.9281C53.0372 10.2064 45.6499 13.1809 42.9281 19.5719C40.2064 25.9629 43.1809 33.3502 49.5719 36.0719C55.9629 38.7937 63.3502 35.8191 66.0719 29.4281Z" fill="#0C68F4"/>
<path d="M48.6954 23.1972L53.4667 28.6187L61.2739 17.5587" stroke="white" stroke-width="2" stroke-miterlimit="10" stroke-linecap="round" stroke-linejoin="round"/>
<path d="M27.8192 54.156V58.476C27.8192 58.572 27.8472 58.644 27.9032 58.692C27.9512 58.748 28.0152 58.776 28.0952 58.776H28.4312V60H27.6752C27.3072 60 26.9752 59.852 26.6792 59.556C26.2232 59.932 25.7152 60.12 25.1552 60.12C24.5232 60.12 23.9792 59.92 23.5232 59.52C22.9152 58.952 22.6112 58.192 22.6112 57.24C22.6112 56.368 22.8912 55.644 23.4512 55.068C23.9632 54.548 24.5912 54.288 25.3352 54.288C25.7512 54.288 26.1672 54.376 26.5832 54.552L27.0992 54.156H27.8192ZM26.3552 55.704C26.0752 55.6 25.8072 55.548 25.5512 55.548C25.1192 55.548 24.7632 55.708 24.4832 56.028C24.2032 56.34 24.0632 56.748 24.0632 57.252C24.0632 57.756 24.1872 58.16 24.4352 58.464C24.6912 58.768 25.0312 58.92 25.4552 58.92C25.7432 58.92 26.0432 58.856 26.3552 58.728V55.704ZM33.0048 51.84C33.2208 51.84 33.4048 51.916 33.5568 52.068C33.7088 52.22 33.7848 52.404 33.7848 52.62C33.7848 52.828 33.7088 53.008 33.5568 53.16C33.4048 53.312 33.2208 53.388 33.0048 53.388C32.7968 53.388 32.6168 53.312 32.4648 53.16C32.3128 53.008 32.2368 52.828 32.2368 52.62C32.2368 52.404 32.3128 52.22 32.4648 52.068C32.6168 51.916 32.7968 51.84 33.0048 51.84ZM30.7608 58.776C30.5768 58.544 30.4328 58.268 30.3288 57.948C30.2408 57.644 30.1968 57.34 30.1968 57.036C30.1968 56.332 30.4008 55.744 30.8088 55.272C31.3288 54.648 32.0608 54.336 33.0048 54.336C33.6768 54.336 34.2368 54.516 34.6848 54.876C35.1728 55.292 35.4168 55.852 35.4168 56.556V58.68C35.4168 59.008 35.3088 59.3 35.0928 59.556C34.8368 59.852 34.5128 60 34.1208 60H28.3488V58.776H30.7608ZM33.9528 56.556C33.9528 56.228 33.8408 55.964 33.6168 55.764C33.4408 55.628 33.2368 55.56 33.0048 55.56C32.4848 55.56 32.1088 55.764 31.8768 56.172C31.7248 56.428 31.6488 56.752 31.6488 57.144C31.6488 57.68 31.8168 58.1 32.1528 58.404C32.4248 58.652 32.7808 58.776 33.2208 58.776H33.6528C33.8528 58.776 33.9528 58.676 33.9528 58.476V56.556ZM38.3643 51.408V58.476C38.3643 58.556 38.3883 58.62 38.4363 58.668C38.4843 58.74 38.5603 58.776 38.6643 58.776H38.9763V60H38.1963C37.8683 60 37.5803 59.884 37.3323 59.652C37.0443 59.388 36.9003 59.064 36.9003 58.68V51.408H38.3643ZM45.6876 51.84C45.9036 51.84 46.0876 51.916 46.2396 52.068C46.3916 52.22 46.4676 52.404 46.4676 52.62C46.4676 52.828 46.3916 53.008 46.2396 53.16C46.0876 53.312 45.9036 53.388 45.6876 53.388C45.4796 53.388 45.2996 53.312 45.1476 53.16C44.9956 53.008 44.9196 52.828 44.9196 52.62C44.9196 52.404 44.9956 52.22 45.1476 52.068C45.2996 51.916 45.4796 51.84 45.6876 51.84ZM42.4956 56.496C43.5676 55.048 44.8916 54.324 46.4676 54.324C47.4276 54.324 48.2196 54.624 48.8436 55.224C49.4116 55.776 49.6956 56.464 49.6956 57.288V58.68C49.6956 59.04 49.5716 59.344 49.3236 59.592C49.0756 59.864 48.7676 60 48.3996 60H38.8836V58.776H41.0436V54.48H42.4956V56.496ZM48.2316 57.36C48.2316 56.864 48.0716 56.464 47.7516 56.16C47.3676 55.776 46.8636 55.584 46.2396 55.584C45.6236 55.584 45.0236 55.788 44.4396 56.196C43.6556 56.74 43.0076 57.6 42.4956 58.776H47.9316C48.1316 58.776 48.2316 58.676 48.2316 58.476V57.36ZM57.4854 51.408V58.68C57.4854 59.024 57.3734 59.316 57.1494 59.556C56.8934 59.852 56.5734 60 56.1894 60H51.3774L50.7774 59.256V58.776H53.6934L51.7134 52.884H53.0814L55.0734 58.776H55.7214C55.8174 58.776 55.8974 58.744 55.9614 58.68C56.0014 58.616 56.0214 58.548 56.0214 58.476V51.408H57.4854ZM60.6065 51.408V59.7L59.8625 60.3H59.1425V51.408H60.6065ZM68.6148 54.156C68.8308 54.156 69.0148 54.232 69.1668 54.384C69.3188 54.536 69.3948 54.72 69.3948 54.936C69.3948 55.152 69.3188 55.336 69.1668 55.488C69.0148 55.64 68.8308 55.716 68.6148 55.716C68.4068 55.716 68.2268 55.64 68.0748 55.488C67.9228 55.336 67.8468 55.152 67.8468 54.936C67.8468 54.72 67.9228 54.536 68.0748 54.384C68.2268 54.232 68.4068 54.156 68.6148 54.156ZM70.4508 54.156C70.6588 54.156 70.8388 54.232 70.9908 54.384C71.1428 54.536 71.2188 54.72 71.2188 54.936C71.2188 55.152 71.1428 55.336 70.9908 55.488C70.8388 55.64 70.6588 55.716 70.4508 55.716C70.2348 55.716 70.0508 55.64 69.8988 55.488C69.7468 55.336 69.6708 55.152 69.6708 54.936C69.6708 54.72 69.7468 54.536 69.8988 54.384C70.0508 54.232 70.2348 54.156 70.4508 54.156ZM74.5788 54.48V58.596C74.5788 58.676 74.5748 58.736 74.5668 58.776H75.1908V60H74.7828L74.3268 59.508H74.2908C74.0428 59.836 73.7068 60 73.2828 60H66.5628C66.0508 60 65.6068 59.836 65.2308 59.508C64.7188 59.084 64.4628 58.528 64.4628 57.84V55.944L65.2068 55.344H65.9268V57.84C65.9268 58.12 66.0228 58.348 66.2148 58.524C66.3988 58.692 66.6108 58.776 66.8508 58.776H72.7788C72.8828 58.776 72.9708 58.74 73.0428 58.668C73.0908 58.604 73.1148 58.528 73.1148 58.44V54.48H74.5788ZM77.2426 58.776C77.0506 58.312 76.9546 57.792 76.9546 57.216C76.9546 56.272 77.2466 55.54 77.8306 55.02C78.3186 54.58 78.9426 54.356 79.7026 54.348C80.3826 54.348 80.9386 54.508 81.3706 54.828C81.8986 55.228 82.1626 55.804 82.1626 56.556V58.476C82.1626 58.548 82.1826 58.616 82.2226 58.68C82.2866 58.744 82.3586 58.776 82.4386 58.776H82.5466V60H82.0186C81.6586 60 81.3506 59.872 81.0946 59.616C80.7026 60.112 80.1826 60.36 79.5346 60.36C78.8386 60.36 78.2466 60.104 77.7586 59.592H77.7346L77.3986 60H75.1066V58.776H77.2426ZM80.6986 56.556C80.6986 56.26 80.6066 56.02 80.4226 55.836C80.2546 55.652 80.0146 55.56 79.7026 55.56C79.3106 55.56 78.9946 55.712 78.7546 56.016C78.5226 56.32 78.4066 56.728 78.4066 57.24C78.4066 57.8 78.5266 58.256 78.7666 58.608C79.0066 58.96 79.3146 59.136 79.6906 59.136C80.0346 59.136 80.3706 58.972 80.6986 58.644V56.556ZM83.618 51.84C83.834 51.84 84.018 51.916 84.17 52.068C84.322 52.22 84.398 52.404 84.398 52.62C84.398 52.828 84.322 53.008 84.17 53.16C84.018 53.312 83.834 53.388 83.618 53.388C83.402 53.388 83.218 53.312 83.066 53.16C82.914 53.008 82.838 52.828 82.838 52.62C82.838 52.404 82.914 52.22 83.066 52.068C83.218 51.916 83.402 51.84 83.618 51.84ZM85.442 51.84C85.658 51.84 85.842 51.916 85.994 52.068C86.146 52.22 86.222 52.404 86.222 52.62C86.222 52.828 86.146 53.008 85.994 53.16C85.842 53.312 85.658 53.388 85.442 53.388C85.234 53.388 85.054 53.312 84.902 53.16C84.75 53.008 84.674 52.828 84.674 52.62C84.674 52.404 84.75 52.22 84.902 52.068C85.054 51.916 85.234 51.84 85.442 51.84ZM86.066 54.48V58.68C86.066 58.992 85.962 59.28 85.754 59.544C85.49 59.848 85.162 60 84.77 60H82.454V58.776H84.302C84.39 58.776 84.466 58.744 84.53 58.68C84.586 58.624 84.614 58.556 84.614 58.476V54.48H86.066ZM44.1785 68.156V72.476C44.1785 72.572 44.2065 72.644 44.2625 72.692C44.3105 72.748 44.3745 72.776 44.4545 72.776H44.7905V74H44.0345C43.6665 74 43.3345 73.852 43.0385 73.556C42.5825 73.932 42.0745 74.12 41.5145 74.12C40.8825 74.12 40.3385 73.92 39.8825 73.52C39.2745 72.952 38.9705 72.192 38.9705 71.24C38.9705 70.368 39.2505 69.644 39.8105 69.068C40.3225 68.548 40.9505 68.288 41.6945 68.288C42.1105 68.288 42.5265 68.376 42.9425 68.552L43.4585 68.156H44.1785ZM42.7145 69.704C42.4345 69.6 42.1665 69.548 41.9105 69.548C41.4785 69.548 41.1225 69.708 40.8425 70.028C40.5625 70.34 40.4225 70.748 40.4225 71.252C40.4225 71.756 40.5465 72.16 40.7945 72.464C41.0505 72.768 41.3905 72.92 41.8145 72.92C42.1025 72.92 42.4025 72.856 42.7145 72.728V69.704ZM48.3201 65.408V72.596V72.776H48.9321V74H48.5241L48.0681 73.508H48.0441C47.7721 73.836 47.4321 74 47.0241 74H44.7081V72.776H46.5561C46.6521 72.776 46.7321 72.744 46.7961 72.68C46.8441 72.6 46.8681 72.532 46.8681 72.476V65.408H48.3201ZM61.5769 68.48V72.404V72.776H62.1889V74H61.7209L61.3249 73.508H61.3009C61.0289 73.836 60.6889 74 60.2809 74H57.7129L57.3169 73.508H57.2809C57.0169 73.836 56.6809 74 56.2729 74H53.6929L53.2969 73.508H53.2609C52.9969 73.836 52.6609 74 52.2529 74H48.8449V72.776H51.7849C51.9849 72.776 52.0849 72.676 52.0849 72.476V69.86H53.5489V72.404C53.5489 72.572 53.5449 72.696 53.5369 72.776H55.8049C56.0049 72.776 56.1049 72.676 56.1049 72.476V69.164H57.5689V72.368C57.5689 72.416 57.5649 72.488 57.5569 72.584C57.5569 72.672 57.5569 72.736 57.5569 72.776H59.8129C60.0129 72.776 60.1129 72.676 60.1129 72.476V68.48H61.5769ZM65.7225 65.408V72.596V72.776H66.3345V74H65.9265L65.4705 73.508H65.4465C65.1745 73.836 64.8345 74 64.4265 74H62.1105V72.776H63.9585C64.0545 72.776 64.1345 72.744 64.1985 72.68C64.2465 72.6 64.2705 72.532 64.2705 72.476V65.408H65.7225ZM69.8592 65.408V72.68C69.8592 73.016 69.7512 73.304 69.5352 73.544C69.2872 73.848 68.9632 74 68.5632 74H66.2472V72.776H68.0952C68.1832 72.776 68.2592 72.744 68.3232 72.68C68.3792 72.624 68.4072 72.556 68.4072 72.476V65.408H69.8592Z" fill="black"/>
</svg>
